<?xml version="1.0" encoding="UTF-8"?>
<svg width="245px" height="124px" viewBox="0 0 245 124" version="1.1" xmlns="http://www.w3.org/2000/svg" xmlns:xlink="http://www.w3.org/1999/xlink">
    <title>xgmi _ Dark Background@1x</title>
    <g id="xgmi-_-Dark-Background" stroke="none" stroke-width="1" fill="none" fill-rule="evenodd">
        <g id="xgmi-_-padding" transform="translate(20, 20)" fill="#FFFFFF" fill-rule="nonzero">
            <g id="xgmi">
                <polygon id="Path" points="32.2153846 42.8307692 51.2307692 66.0923077 37.5692308 66.0923077 25.5692308 51.0461538 13.6615385 66.0923077 0 66.0923077 18.9230769 42.8307692 1.01538462 20.9538462 14.7692308 20.9538462 25.5692308 34.7076923 36.3692308 20.9538462 50.1230769 20.9538462"></polygon>
                <path d="M100.061538,20.9538462 L100.061538,61.9384615 C100.061538,69.0153846 98.1076923,74.3692308 94.2,78 C90.2923077,81.6307692 84.5230769,83.4461538 76.8923077,83.4461538 C72.9538462,83.4461538 69.1692308,82.9384615 65.5384615,81.9230769 C61.9076923,80.9076923 58.7384615,79.4769231 56.0307692,77.6307692 L59.2615385,69.5076923 C64.8615385,72.8923077 70.6461538,74.5846154 76.6153846,74.5846154 C84.6153846,74.5846154 88.6153846,70.6461538 88.6153846,62.7692308 L88.6153846,56.8615385 C87.2615385,59.3846154 85.2923077,61.3384615 82.7076923,62.7230769 C80.1230769,64.1076923 77.1692308,64.8 73.8461538,64.8 C69.9076923,64.8 66.4153846,63.8615385 63.3692308,61.9846154 C60.3230769,60.1076923 57.9384615,57.4769231 56.2153846,54.0923077 C54.4923077,50.7076923 53.6307692,46.8 53.6307692,42.3692308 C53.6307692,37.9384615 54.4769231,34.0153846 56.1692308,30.6 C57.8615385,27.1846154 60.2461538,24.5384615 63.3230769,22.6615385 C66.4,20.7846154 69.9076923,19.8461538 73.8461538,19.8461538 C77.1692308,19.8461538 80.1230769,20.5384615 82.7076923,21.9230769 C85.2923077,23.3076923 87.2615385,25.2615385 88.6153846,27.7846154 L88.6153846,20.9538462 L100.061538,20.9538462 Z M76.8923077,55.8461538 C80.5846154,55.8461538 83.4615385,54.6461538 85.5230769,52.2461538 C87.5846154,49.8461538 88.6153846,46.5538462 88.6153846,42.3692308 C88.6153846,38.1230769 87.5846154,34.8 85.5230769,32.4 C83.4615385,30 80.5846154,28.8 76.8923077,28.8 C73.2615385,28.8 70.4,30 68.3076923,32.4 C66.2153846,34.8 65.1692308,38.1230769 65.1692308,42.3692308 C65.1692308,46.4923077 66.2153846,49.7692308 68.3076923,52.2 C70.4,54.6307692 73.2615385,55.8461538 76.8923077,55.8461538 Z" id="Shape"></path>
                <path d="M165.6,19.8461538 C170.707692,19.8461538 174.523077,21.3692308 177.046154,24.4153846 C179.569231,27.4615385 180.830769,32.1230769 180.830769,38.4 L180.830769,66.0923077 L169.292308,66.0923077 L169.292308,38.8615385 C169.292308,35.4153846 168.707692,32.9076923 167.538462,31.3384615 C166.369231,29.7692308 164.492308,28.9846154 161.907692,28.9846154 C158.830769,28.9846154 156.430769,30.0307692 154.707692,32.1230769 C152.984615,34.2153846 152.123077,37.1384615 152.123077,40.8923077 L152.123077,66.0923077 L140.584615,66.0923077 L140.584615,38.8615385 C140.584615,35.4153846 140.015385,32.9076923 138.876923,31.3384615 C137.738462,29.7692308 135.846154,28.9846154 133.2,28.9846154 C130.184615,28.9846154 127.815385,30.0307692 126.092308,32.1230769 C124.369231,34.2153846 123.507692,37.1384615 123.507692,40.8923077 L123.507692,66.0923077 L111.969231,66.0923077 L111.969231,20.9538462 L123.230769,20.9538462 L123.230769,27.3230769 C124.584615,24.8615385 126.461538,23 128.861538,21.7384615 C131.261538,20.4769231 134,19.8461538 137.076923,19.8461538 C143.907692,19.8461538 148.430769,22.6769231 150.646154,28.3384615 C152.061538,25.6923077 154.092308,23.6153846 156.738462,22.1076923 C159.384615,20.6 162.338462,19.8461538 165.6,19.8461538 Z" id="Path"></path>
                <path d="M192.553846,66.0923077 L192.553846,20.9538462 L204.092308,20.9538462 L204.092308,66.0923077 L192.553846,66.0923077 Z M191.907692,0 L204.646154,0 L204.646154,11.3538462 L191.907692,11.3538462 L191.907692,0 Z" id="Shape"></path>
            </g>
        </g>
    </g>
</svg>