<?xml version="1.0" encoding="UTF-8"?>
<svg width="850px" height="850px" viewBox="0 0 850 850" version="1.1" xmlns="http://www.w3.org/2000/svg" xmlns:xlink="http://www.w3.org/1999/xlink">
    <title>xgmi _ logo</title>
    <g id="xgmi-_-logo" stroke="none" stroke-width="1" fill="none" fill-rule="evenodd">
        <g id="Group-2">
            <rect id="Rectangle" fill="#131415" x="0" y="0" width="850" height="850" rx="100"></rect>
            <g id="Group" transform="translate(125.000000, 206.000000)" fill="#FFFFFF" fill-rule="nonzero">
                <polygon id="Path" points="335.5 215.5 438.5 341.5 364.5 341.5 299.5 260 235 341.5 161 341.5 263.5 215.5 166.5 97 241 97 299.5 171.5 358 97 432.5 97"></polygon>
                <path d="M600,196.5 L600,242 L582,243.5 C570,244.5 561.666667,248 557,254 C552.333333,260 550,269.666667 550,283 L550,378.5 C550,397.5 544.75,412.333333 534.25,423 C523.75,433.666667 508.833333,439 489.5,439 L433.5,439 L433.5,392 L468,392 C475,392 480.25,390.25 483.75,386.75 C487.25,383.25 489,377.666667 489,370 L489,275.5 C489,260.5 492.916667,248 500.75,238 C508.583333,228 517.833333,221.833333 528.5,219.5 C517.833333,217.166667 508.583333,210.916667 500.75,200.75 C492.916667,190.583333 489,178 489,163 L489,69 C489,61.3333333 487.25,55.75 483.75,52.25 C480.25,48.75 475,47 468,47 L433.5,47 L433.5,0 L489.5,0 C508.833333,0 523.75,5.33333333 534.25,16 C544.75,26.6666667 550,41.5 550,60.5 L550,155.5 C550,168.833333 552.333333,178.5 557,184.5 C561.666667,190.5 570,194 582,195 L600,196.5 Z" id="Path"></path>
                <path d="M166.5,196.5 L166.5,242 L148.5,243.5 C136.5,244.5 128.166667,248 123.5,254 C118.833333,260 116.5,269.666667 116.5,283 L116.5,378.5 C116.5,397.5 111.25,412.333333 100.75,423 C90.25,433.666667 75.3333333,439 56,439 L0,439 L0,392 L34.5,392 C41.5,392 46.75,390.25 50.25,386.75 C53.75,383.25 55.5,377.666667 55.5,370 L55.5,275.5 C55.5,260.5 59.4166667,248 67.25,238 C75.0833333,228 84.3333333,221.833333 95,219.5 C84.3333333,217.166667 75.0833333,210.916667 67.25,200.75 C59.4166667,190.583333 55.5,178 55.5,163 L55.5,69 C55.5,61.3333333 53.75,55.75 50.25,52.25 C46.75,48.75 41.5,47 34.5,47 L0,47 L0,0 L56,0 C75.3333333,0 90.25,5.33333333 100.75,16 C111.25,26.6666667 116.5,41.5 116.5,60.5 L116.5,155.5 C116.5,168.833333 118.833333,178.5 123.5,184.5 C128.166667,190.5 136.5,194 148.5,195 L166.5,196.5 Z" id="Path" transform="translate(83.250000, 219.500000) scale(-1, 1) translate(-83.250000, -219.500000) "></path>
            </g>
        </g>
    </g>
</svg>